<mxfile host="Electron" modified="2024-07-20T12:14:59.352Z" agent="Mozilla/5.0 (Macintosh; Intel Mac OS X 10_15_7) AppleWebKit/537.36 (KHTML, like Gecko) draw.io/21.8.2 Chrome/114.0.5735.289 Electron/25.8.1 Safari/537.36" etag="2p5y3ZgGrSBOjQp9hd0L" version="21.8.2" type="device" pages="4">
  <diagram name="scope-1" id="HCPqdZRcM8JZpaIAq341">
    <mxGraphModel dx="2042" dy="490" grid="1" gridSize="10" guides="1" tooltips="1" connect="1" arrows="1" fold="1" page="0" pageScale="1" pageWidth="827" pageHeight="1169" math="0" shadow="0">
      <root>
        <mxCell id="8XlsnII-lnJLQSz4qzVp-0" />
        <mxCell id="8XlsnII-lnJLQSz4qzVp-1" parent="8XlsnII-lnJLQSz4qzVp-0" />
        <mxCell id="lgO9anZBfDa2rd_F-g-t-5" value="Jmix Application&lt;br&gt;&lt;font style=&quot;font-size: 13px;&quot;&gt;[Java, Spring Boot, Vaadin]&lt;/font&gt;" style="rounded=1;whiteSpace=wrap;html=1;fontSize=16;fillColor=#ffe6cc;strokeColor=#d79b00;" parent="8XlsnII-lnJLQSz4qzVp-1" vertex="1">
          <mxGeometry x="-490" y="510" width="220" height="100" as="geometry" />
        </mxCell>
        <mxCell id="lgO9anZBfDa2rd_F-g-t-6" value="Main Data Store&lt;br&gt;&lt;font style=&quot;font-size: 13px;&quot;&gt;[relational database]&lt;/font&gt;" style="shape=cylinder3;whiteSpace=wrap;html=1;boundedLbl=1;backgroundOutline=1;size=15;fontSize=16;fillColor=#dae8fc;strokeColor=#6c8ebf;" parent="8XlsnII-lnJLQSz4qzVp-1" vertex="1">
          <mxGeometry x="-468.75" y="650" width="177.5" height="90" as="geometry" />
        </mxCell>
        <mxCell id="lgO9anZBfDa2rd_F-g-t-7" value="" style="endArrow=classic;html=1;rounded=0;fontSize=12;startSize=8;endSize=8;curved=1;" parent="8XlsnII-lnJLQSz4qzVp-1" source="lgO9anZBfDa2rd_F-g-t-10" target="lgO9anZBfDa2rd_F-g-t-5" edge="1">
          <mxGeometry width="50" height="50" relative="1" as="geometry">
            <mxPoint x="-380" y="440" as="sourcePoint" />
            <mxPoint x="-255" y="450" as="targetPoint" />
          </mxGeometry>
        </mxCell>
        <mxCell id="lgO9anZBfDa2rd_F-g-t-10" value="User with a &lt;br&gt;web browser" style="shape=umlActor;verticalLabelPosition=top;verticalAlign=bottom;html=1;outlineConnect=0;fontSize=16;labelPosition=center;align=center;fillColor=#f5f5f5;fontColor=#333333;strokeColor=#666666;" parent="8XlsnII-lnJLQSz4qzVp-1" vertex="1">
          <mxGeometry x="-590" y="530" width="30" height="60" as="geometry" />
        </mxCell>
        <mxCell id="lgO9anZBfDa2rd_F-g-t-12" value="" style="endArrow=classic;html=1;rounded=0;fontSize=12;startSize=8;endSize=8;curved=1;" parent="8XlsnII-lnJLQSz4qzVp-1" source="lgO9anZBfDa2rd_F-g-t-5" target="lgO9anZBfDa2rd_F-g-t-6" edge="1">
          <mxGeometry width="50" height="50" relative="1" as="geometry">
            <mxPoint x="-265" y="690" as="sourcePoint" />
            <mxPoint x="-215" y="640" as="targetPoint" />
          </mxGeometry>
        </mxCell>
      </root>
    </mxGraphModel>
  </diagram>
  <diagram name="scope-2" id="XMFlhhZ-zuRsivK-DeXo">
    <mxGraphModel dx="2042" dy="490" grid="1" gridSize="10" guides="1" tooltips="1" connect="1" arrows="1" fold="1" page="0" pageScale="1" pageWidth="827" pageHeight="1169" math="0" shadow="0">
      <root>
        <mxCell id="EJJME2tHcwtue7raRcBQ-0" />
        <mxCell id="EJJME2tHcwtue7raRcBQ-1" parent="EJJME2tHcwtue7raRcBQ-0" />
        <mxCell id="EJJME2tHcwtue7raRcBQ-2" value="Jmix Application&lt;br&gt;&lt;font style=&quot;font-size: 13px;&quot;&gt;[Java, Spring Boot, Vaadin]&lt;/font&gt;" style="rounded=1;whiteSpace=wrap;html=1;fontSize=16;fillColor=#ffe6cc;strokeColor=#d79b00;" vertex="1" parent="EJJME2tHcwtue7raRcBQ-1">
          <mxGeometry x="-490" y="510" width="220" height="100" as="geometry" />
        </mxCell>
        <mxCell id="EJJME2tHcwtue7raRcBQ-3" value="Main Data Store&lt;br&gt;&lt;font style=&quot;font-size: 13px;&quot;&gt;[relational database]&lt;/font&gt;" style="shape=cylinder3;whiteSpace=wrap;html=1;boundedLbl=1;backgroundOutline=1;size=15;fontSize=16;fillColor=#dae8fc;strokeColor=#6c8ebf;" vertex="1" parent="EJJME2tHcwtue7raRcBQ-1">
          <mxGeometry x="-468.75" y="710" width="177.5" height="90" as="geometry" />
        </mxCell>
        <mxCell id="EJJME2tHcwtue7raRcBQ-4" value="" style="endArrow=classic;html=1;rounded=0;fontSize=12;startSize=8;endSize=8;curved=1;" edge="1" parent="EJJME2tHcwtue7raRcBQ-1" source="EJJME2tHcwtue7raRcBQ-5" target="EJJME2tHcwtue7raRcBQ-2">
          <mxGeometry width="50" height="50" relative="1" as="geometry">
            <mxPoint x="-380" y="440" as="sourcePoint" />
            <mxPoint x="-255" y="450" as="targetPoint" />
          </mxGeometry>
        </mxCell>
        <mxCell id="EJJME2tHcwtue7raRcBQ-5" value="User with a &lt;br&gt;web browser" style="shape=umlActor;verticalLabelPosition=top;verticalAlign=bottom;html=1;outlineConnect=0;fontSize=16;labelPosition=center;align=center;fillColor=#f5f5f5;fontColor=#333333;strokeColor=#666666;" vertex="1" parent="EJJME2tHcwtue7raRcBQ-1">
          <mxGeometry x="-580" y="530" width="30" height="60" as="geometry" />
        </mxCell>
        <mxCell id="EJJME2tHcwtue7raRcBQ-6" value="" style="endArrow=classic;html=1;rounded=0;fontSize=12;startSize=8;endSize=8;curved=1;" edge="1" parent="EJJME2tHcwtue7raRcBQ-1" source="EJJME2tHcwtue7raRcBQ-2" target="EJJME2tHcwtue7raRcBQ-3">
          <mxGeometry width="50" height="50" relative="1" as="geometry">
            <mxPoint x="-265" y="690" as="sourcePoint" />
            <mxPoint x="-215" y="640" as="targetPoint" />
          </mxGeometry>
        </mxCell>
        <mxCell id="SMOHsoPgHWRh_E_IhD09-0" value="Additional Data Store&lt;br&gt;&lt;font style=&quot;font-size: 13px;&quot;&gt;[any storage&amp;nbsp;technology]&lt;/font&gt;" style="shape=cylinder3;whiteSpace=wrap;html=1;boundedLbl=1;backgroundOutline=1;size=15;fontSize=16;fillColor=#dae8fc;strokeColor=#6c8ebf;" vertex="1" parent="EJJME2tHcwtue7raRcBQ-1">
          <mxGeometry x="-250" y="710" width="174.5" height="90" as="geometry" />
        </mxCell>
        <mxCell id="_e5YHhI_MW_lP-1lm5RX-0" value="Authentication Service&lt;br&gt;&lt;font style=&quot;font-size: 13px;&quot;&gt;[OIDC or LDAP]&lt;/font&gt;" style="rounded=1;whiteSpace=wrap;html=1;fontSize=16;fillColor=#dae8fc;strokeColor=#6c8ebf;" vertex="1" parent="EJJME2tHcwtue7raRcBQ-1">
          <mxGeometry x="-200" y="440" width="190" height="60" as="geometry" />
        </mxCell>
        <mxCell id="_e5YHhI_MW_lP-1lm5RX-1" value="File Storage&lt;br&gt;&lt;font style=&quot;font-size: 13px;&quot;&gt;[file system or cloud service]&lt;/font&gt;" style="rounded=1;whiteSpace=wrap;html=1;fontSize=16;fillColor=#dae8fc;strokeColor=#6c8ebf;" vertex="1" parent="EJJME2tHcwtue7raRcBQ-1">
          <mxGeometry x="-200" y="530" width="190" height="60" as="geometry" />
        </mxCell>
        <mxCell id="ES09bXZdK3nUgDne1k3c-0" value="Search Service&lt;br&gt;&lt;font style=&quot;font-size: 13px;&quot;&gt;[OpenSearch or Elasticsearch]&lt;/font&gt;" style="rounded=1;whiteSpace=wrap;html=1;fontSize=16;fillColor=#dae8fc;strokeColor=#6c8ebf;" vertex="1" parent="EJJME2tHcwtue7raRcBQ-1">
          <mxGeometry x="-200" y="620" width="190" height="60" as="geometry" />
        </mxCell>
        <mxCell id="_YSJKzh6IYavnkouhEKk-0" value="" style="endArrow=classic;html=1;rounded=0;fontSize=12;startSize=8;endSize=8;curved=1;" edge="1" parent="EJJME2tHcwtue7raRcBQ-1" source="EJJME2tHcwtue7raRcBQ-2" target="SMOHsoPgHWRh_E_IhD09-0">
          <mxGeometry width="50" height="50" relative="1" as="geometry">
            <mxPoint x="-320" y="720" as="sourcePoint" />
            <mxPoint x="-270" y="670" as="targetPoint" />
            <Array as="points">
              <mxPoint x="-300" y="680" />
            </Array>
          </mxGeometry>
        </mxCell>
        <mxCell id="_YSJKzh6IYavnkouhEKk-1" value="" style="endArrow=classic;html=1;rounded=0;fontSize=12;startSize=8;endSize=8;curved=1;" edge="1" parent="EJJME2tHcwtue7raRcBQ-1" source="EJJME2tHcwtue7raRcBQ-2" target="_e5YHhI_MW_lP-1lm5RX-0">
          <mxGeometry width="50" height="50" relative="1" as="geometry">
            <mxPoint x="-300" y="490" as="sourcePoint" />
            <mxPoint x="-250" y="440" as="targetPoint" />
            <Array as="points">
              <mxPoint x="-240" y="480" />
            </Array>
          </mxGeometry>
        </mxCell>
        <mxCell id="_YSJKzh6IYavnkouhEKk-2" value="" style="endArrow=classic;html=1;rounded=0;fontSize=12;startSize=8;endSize=8;curved=1;" edge="1" parent="EJJME2tHcwtue7raRcBQ-1" source="EJJME2tHcwtue7raRcBQ-2" target="_e5YHhI_MW_lP-1lm5RX-1">
          <mxGeometry width="50" height="50" relative="1" as="geometry">
            <mxPoint x="-260" y="590" as="sourcePoint" />
            <mxPoint x="-210" y="540" as="targetPoint" />
          </mxGeometry>
        </mxCell>
        <mxCell id="_YSJKzh6IYavnkouhEKk-3" value="" style="endArrow=classic;html=1;rounded=0;fontSize=12;startSize=8;endSize=8;curved=1;" edge="1" parent="EJJME2tHcwtue7raRcBQ-1" source="EJJME2tHcwtue7raRcBQ-2" target="ES09bXZdK3nUgDne1k3c-0">
          <mxGeometry width="50" height="50" relative="1" as="geometry">
            <mxPoint x="-250" y="650" as="sourcePoint" />
            <mxPoint x="-200" y="600" as="targetPoint" />
            <Array as="points">
              <mxPoint x="-240" y="640" />
            </Array>
          </mxGeometry>
        </mxCell>
      </root>
    </mxGraphModel>
  </diagram>
  <diagram name="scope-3" id="RkTMhdMrMF-u-Dtkpu8h">
    <mxGraphModel dx="2042" dy="890" grid="1" gridSize="10" guides="1" tooltips="1" connect="1" arrows="1" fold="1" page="0" pageScale="1" pageWidth="827" pageHeight="1169" math="0" shadow="0">
      <root>
        <mxCell id="bxKrF-TI27SnkLbqKRP--0" />
        <mxCell id="bxKrF-TI27SnkLbqKRP--1" parent="bxKrF-TI27SnkLbqKRP--0" />
        <mxCell id="bxKrF-TI27SnkLbqKRP--2" value="Jmix Application&lt;br&gt;&lt;font style=&quot;font-size: 13px;&quot;&gt;[Java, Spring Boot, Vaadin]&lt;/font&gt;" style="rounded=1;whiteSpace=wrap;html=1;fontSize=16;fillColor=#ffe6cc;strokeColor=#d79b00;" parent="bxKrF-TI27SnkLbqKRP--1" vertex="1">
          <mxGeometry x="-490" y="510" width="220" height="100" as="geometry" />
        </mxCell>
        <mxCell id="bxKrF-TI27SnkLbqKRP--4" value="" style="endArrow=classic;html=1;rounded=0;fontSize=12;startSize=8;endSize=8;curved=1;" parent="bxKrF-TI27SnkLbqKRP--1" source="bxKrF-TI27SnkLbqKRP--5" target="bxKrF-TI27SnkLbqKRP--2" edge="1">
          <mxGeometry width="50" height="50" relative="1" as="geometry">
            <mxPoint x="-380" y="440" as="sourcePoint" />
            <mxPoint x="-255" y="450" as="targetPoint" />
          </mxGeometry>
        </mxCell>
        <mxCell id="bxKrF-TI27SnkLbqKRP--5" value="User with a &lt;br&gt;web browser" style="shape=umlActor;verticalLabelPosition=top;verticalAlign=bottom;html=1;outlineConnect=0;fontSize=16;labelPosition=center;align=center;fillColor=#f5f5f5;fontColor=#333333;strokeColor=#666666;" parent="bxKrF-TI27SnkLbqKRP--1" vertex="1">
          <mxGeometry x="-590" y="530" width="30" height="60" as="geometry" />
        </mxCell>
        <mxCell id="VOCV1vzNhuA4qFK_AVAI-0" value="Frontend Application&lt;br&gt;&lt;font style=&quot;font-size: 13px;&quot;&gt;[React, Angular, Flutter, etc.]&lt;/font&gt;" style="rounded=1;whiteSpace=wrap;html=1;fontSize=16;fillColor=#f5f5f5;fontColor=#333333;strokeColor=#666666;" parent="bxKrF-TI27SnkLbqKRP--1" vertex="1">
          <mxGeometry x="-490" y="370" width="220" height="70" as="geometry" />
        </mxCell>
        <mxCell id="rHDAHy6saJk-QeQtqxCr-0" value="User with a &lt;br&gt;web browser" style="shape=umlActor;verticalLabelPosition=top;verticalAlign=bottom;html=1;outlineConnect=0;fontSize=16;labelPosition=center;align=center;fillColor=#f5f5f5;fontColor=#333333;strokeColor=#666666;" parent="bxKrF-TI27SnkLbqKRP--1" vertex="1">
          <mxGeometry x="-590" y="375" width="30" height="60" as="geometry" />
        </mxCell>
        <mxCell id="rHDAHy6saJk-QeQtqxCr-1" value="" style="endArrow=classic;html=1;rounded=0;fontSize=12;startSize=8;endSize=8;curved=1;" parent="bxKrF-TI27SnkLbqKRP--1" source="rHDAHy6saJk-QeQtqxCr-0" target="VOCV1vzNhuA4qFK_AVAI-0" edge="1">
          <mxGeometry width="50" height="50" relative="1" as="geometry">
            <mxPoint x="-40" y="420" as="sourcePoint" />
            <mxPoint x="10" y="370" as="targetPoint" />
          </mxGeometry>
        </mxCell>
        <mxCell id="rHDAHy6saJk-QeQtqxCr-2" value="" style="endArrow=classic;html=1;rounded=0;fontSize=12;startSize=8;endSize=8;curved=1;" parent="bxKrF-TI27SnkLbqKRP--1" source="VOCV1vzNhuA4qFK_AVAI-0" target="bxKrF-TI27SnkLbqKRP--2" edge="1">
          <mxGeometry width="50" height="50" relative="1" as="geometry">
            <mxPoint x="-310" y="680" as="sourcePoint" />
            <mxPoint x="-260" y="630" as="targetPoint" />
          </mxGeometry>
        </mxCell>
        <mxCell id="JwH8X1T7pr2DGr2wXwWW-0" value="&lt;font style=&quot;font-size: 13px;&quot;&gt;REST or other API&lt;/font&gt;" style="edgeLabel;html=1;align=center;verticalAlign=middle;resizable=0;points=[];fontSize=16;" parent="rHDAHy6saJk-QeQtqxCr-2" vertex="1" connectable="0">
          <mxGeometry x="-0.1" y="2" relative="1" as="geometry">
            <mxPoint as="offset" />
          </mxGeometry>
        </mxCell>
      </root>
    </mxGraphModel>
  </diagram>
  <diagram id="aEZycSUm0z23_R6C5J0y" name="components-1">
    <mxGraphModel dx="1642" dy="1290" grid="1" gridSize="10" guides="1" tooltips="1" connect="1" arrows="1" fold="1" page="0" pageScale="1" pageWidth="1169" pageHeight="827" math="0" shadow="0">
      <root>
        <mxCell id="0" />
        <mxCell id="1" parent="0" />
        <mxCell id="GW93PkgTbArawxsjBvsN-1" value="Spring Boot&lt;br&gt;&lt;font style=&quot;font-size: 13px;&quot;&gt;[infrastructure and integration with underlying technologies]&lt;/font&gt;" style="rounded=1;whiteSpace=wrap;html=1;fontSize=16;fillColor=#d5e8d4;strokeColor=#82b366;" parent="1" vertex="1">
          <mxGeometry x="-50" y="210" width="240" height="100" as="geometry" />
        </mxCell>
        <mxCell id="sck2d3KFjD_dvZYaQAUb-1" value="Application Code&lt;br&gt;&lt;font style=&quot;font-size: 13px;&quot;&gt;[entities, views, business logic]&lt;/font&gt;" style="rounded=1;whiteSpace=wrap;html=1;fontSize=16;fillColor=#fff2cc;strokeColor=#d6b656;" parent="1" vertex="1">
          <mxGeometry x="-50" y="-90" width="240" height="100" as="geometry" />
        </mxCell>
        <mxCell id="2Jlf_I45lgNNKSTzzrKi-1" value="Jmix Core Subsystems&lt;br&gt;&lt;font style=&quot;font-size: 13px;&quot;&gt;[Core, Data, UI, Security, Local File Storage]&lt;/font&gt;" style="rounded=1;whiteSpace=wrap;html=1;fontSize=16;fillColor=#ffe6cc;strokeColor=#d79b00;" parent="1" vertex="1">
          <mxGeometry x="-50" y="60" width="240" height="100" as="geometry" />
        </mxCell>
        <mxCell id="OQd-t0p0LtzBAJbpyevp-1" value="Jmix Add-ons&lt;br&gt;&lt;font style=&quot;font-size: 13px;&quot;&gt;[OIDC, LDAP, REST, Reports, Search, BPM, Maps, etc.]&lt;/font&gt;" style="rounded=1;whiteSpace=wrap;html=1;fontSize=16;fillColor=#ffe6cc;strokeColor=#d79b00;" parent="1" vertex="1">
          <mxGeometry x="230" y="60" width="240" height="100" as="geometry" />
        </mxCell>
        <mxCell id="exclNNITi62W8gO5AXAp-1" value="" style="endArrow=classic;html=1;rounded=0;fontSize=12;startSize=8;endSize=8;curved=1;" parent="1" source="sck2d3KFjD_dvZYaQAUb-1" target="GW93PkgTbArawxsjBvsN-1" edge="1">
          <mxGeometry width="50" height="50" relative="1" as="geometry">
            <mxPoint x="-80" y="130" as="sourcePoint" />
            <mxPoint x="-30" y="80" as="targetPoint" />
            <Array as="points">
              <mxPoint x="-200" y="100" />
            </Array>
          </mxGeometry>
        </mxCell>
        <mxCell id="exclNNITi62W8gO5AXAp-2" value="" style="endArrow=classic;html=1;rounded=0;fontSize=12;startSize=8;endSize=8;curved=1;" parent="1" source="sck2d3KFjD_dvZYaQAUb-1" target="2Jlf_I45lgNNKSTzzrKi-1" edge="1">
          <mxGeometry width="50" height="50" relative="1" as="geometry">
            <mxPoint x="-260" as="sourcePoint" />
            <mxPoint x="-210" y="-50" as="targetPoint" />
          </mxGeometry>
        </mxCell>
        <mxCell id="exclNNITi62W8gO5AXAp-4" value="" style="endArrow=classic;html=1;rounded=0;fontSize=12;startSize=8;endSize=8;curved=1;" parent="1" source="OQd-t0p0LtzBAJbpyevp-1" target="2Jlf_I45lgNNKSTzzrKi-1" edge="1">
          <mxGeometry width="50" height="50" relative="1" as="geometry">
            <mxPoint x="-170" y="130" as="sourcePoint" />
            <mxPoint x="-120" y="80" as="targetPoint" />
          </mxGeometry>
        </mxCell>
        <mxCell id="exclNNITi62W8gO5AXAp-6" value="" style="endArrow=classic;html=1;rounded=0;fontSize=12;startSize=8;endSize=8;curved=1;" parent="1" source="2Jlf_I45lgNNKSTzzrKi-1" target="GW93PkgTbArawxsjBvsN-1" edge="1">
          <mxGeometry width="50" height="50" relative="1" as="geometry">
            <mxPoint x="220" y="280" as="sourcePoint" />
            <mxPoint x="270" y="230" as="targetPoint" />
          </mxGeometry>
        </mxCell>
        <mxCell id="jipK8VBinDyYDbt7_lrX-1" value="" style="endArrow=classic;html=1;rounded=0;fontSize=12;startSize=8;endSize=8;curved=1;dashed=1;" parent="1" source="sck2d3KFjD_dvZYaQAUb-1" target="OQd-t0p0LtzBAJbpyevp-1" edge="1">
          <mxGeometry width="50" height="50" relative="1" as="geometry">
            <mxPoint x="240" y="50" as="sourcePoint" />
            <mxPoint x="290" as="targetPoint" />
            <Array as="points">
              <mxPoint x="240" y="20" />
            </Array>
          </mxGeometry>
        </mxCell>
        <mxCell id="jipK8VBinDyYDbt7_lrX-2" value="" style="endArrow=classic;html=1;rounded=0;fontSize=12;startSize=8;endSize=8;curved=1;" parent="1" source="OQd-t0p0LtzBAJbpyevp-1" target="GW93PkgTbArawxsjBvsN-1" edge="1">
          <mxGeometry width="50" height="50" relative="1" as="geometry">
            <mxPoint x="380" y="280" as="sourcePoint" />
            <mxPoint x="340" y="230" as="targetPoint" />
            <Array as="points">
              <mxPoint x="240" y="200" />
            </Array>
          </mxGeometry>
        </mxCell>
      </root>
    </mxGraphModel>
  </diagram>
</mxfile>
